<svg width="150" height="150" viewBox="0 0 150 150" fill="none" xmlns="http://www.w3.org/2000/svg">
<circle cx="75" cy="75" r="75" fill="white"/>
<path d="M98.1089 73.0488L44.8441 34.0513C44.1835 33.5676 43.2533 34.0394 43.2533 34.8582V110C43.2533 110.802 44.1509 111.278 44.8148 110.827L98.0796 74.6831C98.6517 74.2949 98.6667 73.4572 98.1089 73.0488Z" fill="#5C5C5C" stroke="#5C5C5C" stroke-width="7"/>
<path opacity="0.8" d="M74.009 70.9466L109.409 44.2786C112.319 42.0866 115.885 46.0001 113.433 48.6941L92.8385 71.3192C91.8454 72.4102 91.793 74.0614 92.7148 75.2132L113.541 101.234C115.806 104.064 112.041 107.738 109.267 105.404L73.8829 75.6385C72.4075 74.3974 72.4691 72.1067 74.009 70.9466Z" fill="#8D8D8D" stroke="#8D8D8D" stroke-width="7"/>
</svg>
